<mxfile host="65bd71144e">
    <diagram id="lmGSe3CIE-WV-eup-K_4" name="PÃ¡gina-1">
        <mxGraphModel dx="1701" dy="411" grid="1" gridSize="10" guides="1" tooltips="1" connect="1" arrows="1" fold="1" page="1" pageScale="1" pageWidth="827" pageHeight="1169" math="0" shadow="0">
            <root>
                <mxCell id="0"/>
                <mxCell id="1" parent="0"/>
                <mxCell id="4" value="" style="edgeStyle=none;html=1;" edge="1" parent="1" source="2" target="3">
                    <mxGeometry relative="1" as="geometry"/>
                </mxCell>
                <mxCell id="2" value="INICIO" style="ellipse;whiteSpace=wrap;html=1;fillColor=#60a917;fontColor=#ffffff;strokeColor=#2D7600;" vertex="1" parent="1">
                    <mxGeometry x="270" y="40" width="120" height="80" as="geometry"/>
                </mxCell>
                <mxCell id="6" value="" style="edgeStyle=none;html=1;" edge="1" parent="1" source="3">
                    <mxGeometry relative="1" as="geometry">
                        <mxPoint x="330" y="220" as="targetPoint"/>
                    </mxGeometry>
                </mxCell>
                <mxCell id="3" value="a,b,c" style="shape=parallelogram;perimeter=parallelogramPerimeter;whiteSpace=wrap;html=1;fixedSize=1;fillColor=#0050ef;fontColor=#ffffff;strokeColor=#001DBC;" vertex="1" parent="1">
                    <mxGeometry x="270" y="140" width="120" height="60" as="geometry"/>
                </mxCell>
                <mxCell id="23" value="" style="edgeStyle=none;html=1;" edge="1" parent="1" source="17" target="22">
                    <mxGeometry relative="1" as="geometry"/>
                </mxCell>
                <mxCell id="17" value="d=b&lt;sup&gt;2&lt;/sup&gt;-4ac&lt;sup&gt;&lt;br&gt;&lt;/sup&gt;" style="whiteSpace=wrap;html=1;fillColor=#a20025;fontColor=#ffffff;strokeColor=#6F0000;" vertex="1" parent="1">
                    <mxGeometry x="270" y="230" width="120" height="60" as="geometry"/>
                </mxCell>
                <mxCell id="Gkpa9hVz05QLtlqLVs3P-69" style="edgeStyle=none;html=1;entryX=0.575;entryY=-0.05;entryDx=0;entryDy=0;entryPerimeter=0;" edge="1" parent="1" source="20" target="41">
                    <mxGeometry relative="1" as="geometry">
                        <Array as="points">
                            <mxPoint x="50" y="850"/>
                            <mxPoint x="190" y="850"/>
                            <mxPoint x="190" y="920"/>
                            <mxPoint x="340" y="920"/>
                            <mxPoint x="340" y="960"/>
                        </Array>
                    </mxGeometry>
                </mxCell>
                <mxCell id="20" value="numeros imaginarios" style="shape=document;whiteSpace=wrap;html=1;boundedLbl=1;fillColor=#fa6800;fontColor=#000000;strokeColor=#C73500;" vertex="1" parent="1">
                    <mxGeometry x="-10" y="630" width="120" height="80" as="geometry"/>
                </mxCell>
                <mxCell id="25" style="edgeStyle=none;html=1;" edge="1" parent="1" source="22" target="26">
                    <mxGeometry relative="1" as="geometry">
                        <mxPoint x="160" y="500" as="targetPoint"/>
                        <Array as="points">
                            <mxPoint x="160" y="380"/>
                        </Array>
                    </mxGeometry>
                </mxCell>
                <mxCell id="Gkpa9hVz05QLtlqLVs3P-60" style="edgeStyle=none;html=1;" edge="1" parent="1" source="22" target="Gkpa9hVz05QLtlqLVs3P-57">
                    <mxGeometry relative="1" as="geometry">
                        <Array as="points">
                            <mxPoint x="530" y="380"/>
                        </Array>
                    </mxGeometry>
                </mxCell>
                <mxCell id="22" value="d==0" style="rhombus;whiteSpace=wrap;html=1;fillColor=#e51400;fontColor=#ffffff;strokeColor=#B20000;" vertex="1" parent="1">
                    <mxGeometry x="290" y="340" width="80" height="80" as="geometry"/>
                </mxCell>
                <mxCell id="Gkpa9hVz05QLtlqLVs3P-63" value="" style="edgeStyle=none;html=1;" edge="1" parent="1" source="26">
                    <mxGeometry relative="1" as="geometry">
                        <mxPoint x="40" y="630" as="targetPoint"/>
                        <Array as="points">
                            <mxPoint x="40" y="540"/>
                        </Array>
                    </mxGeometry>
                </mxCell>
                <mxCell id="Gkpa9hVz05QLtlqLVs3P-64" style="edgeStyle=none;html=1;entryX=0.5;entryY=0;entryDx=0;entryDy=0;" edge="1" parent="1" source="26" target="27">
                    <mxGeometry relative="1" as="geometry">
                        <mxPoint x="280" y="660" as="targetPoint"/>
                        <Array as="points">
                            <mxPoint x="280" y="540"/>
                        </Array>
                    </mxGeometry>
                </mxCell>
                <mxCell id="26" value="d&amp;gt;0" style="rhombus;whiteSpace=wrap;html=1;fillColor=#a0522d;strokeColor=#6D1F00;fontColor=#ffffff;" vertex="1" parent="1">
                    <mxGeometry x="120" y="500" width="80" height="80" as="geometry"/>
                </mxCell>
                <mxCell id="Gkpa9hVz05QLtlqLVs3P-68" value="" style="edgeStyle=none;html=1;" edge="1" parent="1" source="27" target="Gkpa9hVz05QLtlqLVs3P-67">
                    <mxGeometry relative="1" as="geometry"/>
                </mxCell>
                <mxCell id="27" value="x1=((-b+sqrt(d))/(2a))&lt;br&gt;x2=((-b-sqrt(d))/(2a))" style="whiteSpace=wrap;html=1;fillColor=#f0a30a;fontColor=#000000;strokeColor=#BD7000;" vertex="1" parent="1">
                    <mxGeometry x="220" y="570" width="120" height="60" as="geometry"/>
                </mxCell>
                <mxCell id="41" value="FIN" style="ellipse;whiteSpace=wrap;html=1;fillColor=#63FF52;gradientColor=#ffd966;strokeColor=#d6b656;" vertex="1" parent="1">
                    <mxGeometry x="270" y="990" width="120" height="80" as="geometry"/>
                </mxCell>
                <mxCell id="48" value="false" style="edgeLabel;html=1;align=center;verticalAlign=middle;resizable=0;points=[];" vertex="1" connectable="0" parent="1">
                    <mxGeometry x="249.99505063388347" y="350" as="geometry">
                        <mxPoint x="-6" y="3" as="offset"/>
                    </mxGeometry>
                </mxCell>
                <mxCell id="49" value="true" style="edgeLabel;html=1;align=center;verticalAlign=middle;resizable=0;points=[];" vertex="1" connectable="0" parent="1">
                    <mxGeometry x="640" y="200" as="geometry">
                        <mxPoint x="-232" y="152" as="offset"/>
                    </mxGeometry>
                </mxCell>
                <mxCell id="Gkpa9hVz05QLtlqLVs3P-75" style="edgeStyle=none;html=1;" edge="1" parent="1" source="56">
                    <mxGeometry relative="1" as="geometry">
                        <mxPoint x="340" y="980" as="targetPoint"/>
                        <Array as="points">
                            <mxPoint x="530" y="920"/>
                            <mxPoint x="340" y="920"/>
                        </Array>
                    </mxGeometry>
                </mxCell>
                <mxCell id="56" value="x,x&lt;sup&gt;2&lt;/sup&gt;" style="shape=document;whiteSpace=wrap;html=1;boundedLbl=1;fillColor=#E5CC79;fontColor=#ffffff;strokeColor=#B20000;" vertex="1" parent="1">
                    <mxGeometry x="470" y="650" width="120" height="80" as="geometry"/>
                </mxCell>
                <mxCell id="Gkpa9hVz05QLtlqLVs3P-61" value="" style="edgeStyle=none;html=1;" edge="1" parent="1" source="Gkpa9hVz05QLtlqLVs3P-57" target="56">
                    <mxGeometry relative="1" as="geometry"/>
                </mxCell>
                <mxCell id="Gkpa9hVz05QLtlqLVs3P-57" value="x1=((-b)/(2a))&lt;br&gt;x2=x1" style="whiteSpace=wrap;html=1;fillColor=#647687;fontColor=#ffffff;strokeColor=#314354;" vertex="1" parent="1">
                    <mxGeometry x="470" y="480" width="120" height="60" as="geometry"/>
                </mxCell>
                <mxCell id="Gkpa9hVz05QLtlqLVs3P-74" style="edgeStyle=none;html=1;" edge="1" parent="1" source="Gkpa9hVz05QLtlqLVs3P-67">
                    <mxGeometry relative="1" as="geometry">
                        <mxPoint x="180" y="850" as="targetPoint"/>
                        <Array as="points">
                            <mxPoint x="280" y="850"/>
                        </Array>
                    </mxGeometry>
                </mxCell>
                <mxCell id="Gkpa9hVz05QLtlqLVs3P-67" value="x1,x2" style="shape=document;whiteSpace=wrap;html=1;boundedLbl=1;fillColor=#6d8764;fontColor=#ffffff;strokeColor=#3A5431;" vertex="1" parent="1">
                    <mxGeometry x="220" y="660" width="120" height="80" as="geometry"/>
                </mxCell>
                <mxCell id="Gkpa9hVz05QLtlqLVs3P-72" value="false" style="text;html=1;align=center;verticalAlign=middle;resizable=0;points=[];autosize=1;strokeColor=none;fillColor=none;" vertex="1" parent="1">
                    <mxGeometry x="55" y="485" width="50" height="30" as="geometry"/>
                </mxCell>
                <mxCell id="Gkpa9hVz05QLtlqLVs3P-73" value="true" style="text;html=1;align=center;verticalAlign=middle;resizable=0;points=[];autosize=1;strokeColor=none;fillColor=none;" vertex="1" parent="1">
                    <mxGeometry x="205" y="485" width="40" height="30" as="geometry"/>
                </mxCell>
            </root>
        </mxGraphModel>
    </diagram>
</mxfile>